<svg class="icon" width="200px" height="200.00px" viewBox="0 0 1024 1024" version="1.1" xmlns="http://www.w3.org/2000/svg"><path fill="currentColor" d="M113.664 444.16h798.72c11.264 0 20.48-9.216 20.48-20.48s-9.216-20.48-20.48-20.48H158.0032l192.4608-192.4608a20.52096 20.52096 0 0 0 0-28.9792 20.52096 20.52096 0 0 0-28.9792 0L97.024 406.2208c-7.6288 7.6288-7.8848 19.8656-0.8704 27.904 3.584 5.9904 10.0864 10.0352 17.5104 10.0352zM912.384 582.4h-798.72c-11.264 0-20.48 9.216-20.48 20.48s9.216 20.48 20.48 20.48h749.2608l-189.9008 189.9008a20.52096 20.52096 0 0 0 0 28.9792 20.52096 20.52096 0 0 0 28.9792 0l224.4608-224.4608c0.1024-0.1024 0.1536-0.2048 0.256-0.3072a20.3776 20.3776 0 0 0 6.144-14.592c0-11.264-9.216-20.48-20.48-20.48z"  /></svg>