<?xml version="1.0" standalone="no"?><!DOCTYPE svg PUBLIC "-//W3C//DTD SVG 1.1//EN" "http://www.w3.org/Graphics/SVG/1.1/DTD/svg11.dtd"><svg t="1657253998139" class="icon" viewBox="0 0 1024 1024" version="1.1" xmlns="http://www.w3.org/2000/svg" p-id="7967" xmlns:xlink="http://www.w3.org/1999/xlink" width="32" height="32"><defs><style type="text/css">@font-face { font-family: feedback-iconfont; src: url("//at.alicdn.com/t/font_1031158_u69w8yhxdu.woff2?t=1630033759944") format("woff2"), url("//at.alicdn.com/t/font_1031158_u69w8yhxdu.woff?t=1630033759944") format("woff"), url("//at.alicdn.com/t/font_1031158_u69w8yhxdu.ttf?t=1630033759944") format("truetype"); }
</style></defs><path d="M0 1.3H1024.6V1024H0z" fill="#FFFFFF" p-id="7968"></path><path d="M380.4 248.9c-0.6 0-1.2 0-1.8-0.1-7.6-1-13-8-12-15.6 0.3-2.1 7.2-53.1 43.5-89.4 36.3-36.3 87.2-43.2 89.4-43.5 7.7-1.1 14.6 4.4 15.6 12.1 1 7.7-4.4 14.6-12.1 15.6-0.4 0.1-43.8 6.1-73.2 35.5-29.4 29.4-35.5 72.8-35.5 73.2-1 7.1-7 12.2-13.9 12.2z" fill="#FF8E31" p-id="7969"></path><path d="M478.2 487.3c-28.3 0-51.4-23-51.4-51.4 0-28.3 23-51.4 51.4-51.4 28.3 0 51.4 23.1 51.4 51.4 0 28.4-23 51.4-51.4 51.4z m0-74.8c-12.9 0-23.5 10.5-23.5 23.5 0 12.9 10.5 23.5 23.5 23.5 12.9 0 23.5-10.5 23.5-23.5s-10.5-23.5-23.5-23.5z" fill="#000202" p-id="7970"></path><path d="M380.4 248.9c-6.9 0-12.9-5.1-13.8-12.2-1-7.7 4.4-14.6 12.1-15.6 0.4-0.1 43.8-6.1 73.2-35.5s35.5-72.8 35.5-73.2c1-7.6 8-13 15.7-12 7.6 1 13 8 12 15.6-0.3 2.1-7.2 53.1-43.5 89.4s-87.2 43.2-89.4 43.5h-1.8z" fill="#F4702A" p-id="7971"></path><path d="M478.2 487.3c-28.3 0-51.4-23-51.4-51.4 0-28.3 23-51.4 51.4-51.4 28.3 0 51.4 23.1 51.4 51.4 0 28.4-23 51.4-51.4 51.4z m0-74.8c-12.9 0-23.5 10.5-23.5 23.5 0 12.9 10.5 23.5 23.5 23.5 12.9 0 23.5-10.5 23.5-23.5s-10.5-23.5-23.5-23.5zM183.5 367.7c-3.7 0-7.4-1.5-10.2-4.4-5.3-5.6-5-14.4 0.6-19.7 4.4-4.2 9-8.1 13.7-11.9 6-4.8 14.8-3.8 19.6 2.3 4.8 6 3.8 14.8-2.3 19.6-4.1 3.3-8.1 6.7-11.9 10.3-2.6 2.5-6.1 3.8-9.5 3.8z" fill="#000202" p-id="7972"></path><path d="M431.4 787.6H317.9c-115.9 0-210.1-94.3-210.1-210.1v-81.2c0-41.8 12.4-82.2 35.7-116.9 4.3-6.4 13-8.1 19.4-3.8 6.4 4.3 8.1 13 3.8 19.4-20.3 30.1-31 65.1-31 101.3v81.2c0 100.5 81.7 182.2 182.2 182.2h113.5C531.9 759.7 613.6 678 613.6 577.5v-81.2C613.6 395.8 531.8 314 431.4 314H317.9c-27.3 0-53.6 6-78.1 17.7-6.9 3.3-15.3 0.4-18.6-6.6-3.3-7-0.4-15.3 6.6-18.6 28.3-13.6 58.7-20.5 90.2-20.5h113.5C547.4 286 641.6 380.3 641.6 496.1v81.2c-0.1 116-94.3 210.3-210.2 210.3z" fill="#000202" p-id="7973"></path><path d="M478.2 435.9m-37.4 0a37.4 37.4 0 1 0 74.8 0 37.4 37.4 0 1 0-74.8 0Z" fill="#FF8E31" p-id="7974"></path><path d="M478.2 487.3c-28.3 0-51.4-23-51.4-51.4 0-28.3 23-51.4 51.4-51.4 28.3 0 51.4 23.1 51.4 51.4 0 28.4-23 51.4-51.4 51.4z m0-74.8c-12.9 0-23.5 10.5-23.5 23.5 0 12.9 10.5 23.5 23.5 23.5 12.9 0 23.5-10.5 23.5-23.5s-10.5-23.5-23.5-23.5z" fill="#000202" p-id="7975"></path><path d="M903.8 610c0 164.2-133.1 297.4-297.4 297.4S309 774.2 309 610" fill="#FF8E31" p-id="7976"></path><path d="M606.4 921.3c-171.7 0-311.3-139.7-311.3-311.4 0-7.7 6.3-14 14-14s14 6.3 14 14c0 156.3 127.1 283.4 283.4 283.4 156.3 0 283.4-127.1 283.4-283.4 0-7.7 6.3-14 14-14s14 6.3 14 14c-0.1 171.8-139.8 311.4-311.5 311.4z" fill="#000202" p-id="7977"></path><path d="M407.1 666.8c-5.8 0-11.3-3.7-13.2-9.6l-1.7-4.9c-2.4-7.3 1.5-15.2 8.8-17.7 7.3-2.4 15.2 1.5 17.7 8.8l1.7 4.9c2.4 7.3-1.5 15.2-8.8 17.7-1.5 0.5-3 0.8-4.5 0.8zM555.4 664.3c-6.4 0-12.2-4.4-13.6-10.9l-1.7-7.4c-1.7-7.5 3.1-15 10.6-16.7 7.6-1.7 15 3.1 16.7 10.6l1.7 7.4c1.7 7.5-3.1 15-10.6 16.7-1.1 0.2-2.1 0.3-3.1 0.3zM740.2 789.3c-7.7 0-14-6.3-14-14v-4.9c0-7.7 6.3-14 14-14s14 6.3 14 14v4.9c-0.1 7.8-6.3 14-14 14zM647.7 756c-1.5 0-2.9-0.2-4.4-0.7-7.3-2.4-11.3-10.3-8.8-17.7l1.6-4.9c2.4-7.3 10.3-11.3 17.7-8.8 7.3 2.4 11.3 10.3 8.8 17.7l-1.6 4.9c-2 5.8-7.4 9.5-13.3 9.5zM728.4 662.2c-2.1 0-4.2-0.5-6.2-1.5-6.9-3.5-9.7-11.8-6.2-18.7l1.7-3.3c3.4-6.9 11.9-9.7 18.7-6.2 6.9 3.5 9.7 11.8 6.2 18.7l-1.7 3.3c-2.5 4.9-7.4 7.7-12.5 7.7zM819 701.4c-1.5 0-2.9-0.2-4.4-0.7-7.3-2.4-11.3-10.3-8.8-17.7l3.3-9.9c2.4-7.3 10.3-11.3 17.7-8.8 7.3 2.4 11.3 10.3 8.8 17.7l-3.3 9.9c-2 5.8-7.4 9.5-13.3 9.5zM598.4 845.1c-5.8 0-11.3-3.7-13.2-9.6l-3.3-10c-2.4-7.3 1.5-15.2 8.8-17.7 7.3-2.4 15.2 1.5 17.7 8.8l3.3 10c2.4 7.3-1.5 15.2-8.8 17.7-1.6 0.6-3.1 0.8-4.5 0.8zM480 763.7c-5 0-9.9-2.7-12.4-7.4l-5.6-10.5c-3.6-6.8-1-15.3 5.8-18.9 6.8-3.6 15.3-1 18.9 5.8l5.6 10.5c3.6 6.8 1 15.3-5.8 18.9-2 1-4.3 1.6-6.5 1.6z" fill="#000202" p-id="7978"></path></svg>